<svg xmlns="http://www.w3.org/2000/svg" xmlns:xlink="http://www.w3.org/1999/xlink" width="148" zoomAndPan="magnify" viewBox="0 0 110.88 30.000001" height="40" preserveAspectRatio="xMidYMid meet" version="1.0"><defs><clipPath id="33cd776bbb"><path d="M 1.730469 0 L 109.035156 0 L 109.035156 29.03125 L 1.730469 29.03125 Z M 1.730469 0 " clip-rule="nonzero"/></clipPath></defs><g clip-path="url(#33cd776bbb)"><path fill="#e50914" d="M 103.402344 13.820312 L 109.144531 29.03125 C 107.453125 28.789062 105.761719 28.488281 104.035156 28.214844 L 100.800781 19.808594 L 97.472656 27.519531 C 95.839844 27.25 94.238281 27.15625 92.605469 26.945312 L 98.441406 13.636719 L 93.148438 0 L 98.046875 0 L 101.011719 7.621094 L 104.1875 0 L 109.144531 0 Z M 89.277344 0 L 84.832031 0 L 84.832031 26.371094 C 86.285156 26.460938 87.796875 26.523438 89.277344 26.703125 Z M 80.992188 26.066406 C 76.9375 25.796875 72.886719 25.554688 68.742188 25.464844 L 68.742188 0 L 73.277344 0 L 73.277344 21.167969 C 75.878906 21.230469 78.480469 21.441406 80.992188 21.5625 Z M 63.90625 10.3125 L 63.90625 14.847656 L 57.707031 14.847656 L 57.707031 25.160156 L 53.230469 25.160156 L 53.230469 0 L 65.929688 0 L 65.929688 4.535156 L 57.707031 4.535156 L 57.707031 10.3125 Z M 45.609375 4.535156 L 45.609375 25.402344 C 44.097656 25.402344 42.554688 25.402344 41.070312 25.464844 L 41.070312 4.535156 L 36.382812 4.535156 L 36.382812 0 L 50.324219 0 L 50.324219 4.535156 Z M 31.484375 15.089844 C 29.488281 15.089844 27.128906 15.089844 25.4375 15.179688 L 25.4375 21.925781 C 28.097656 21.742188 30.761719 21.53125 33.449219 21.441406 L 33.449219 25.796875 L 20.902344 26.792969 L 20.902344 0 L 33.449219 0 L 33.449219 4.535156 L 25.4375 4.535156 L 25.4375 10.644531 C 27.191406 10.644531 29.882812 10.554688 31.484375 10.554688 Z M 6.355469 12.550781 L 6.355469 28.394531 C 4.722656 28.578125 3.269531 28.789062 1.726562 29.03125 L 1.726562 0 L 6.050781 0 L 11.949219 16.480469 L 11.949219 0 L 16.484375 0 L 16.484375 27.15625 C 14.882812 27.429688 13.25 27.519531 11.527344 27.761719 Z M 6.355469 12.550781 " fill-opacity="1" fill-rule="nonzero"/></g></svg>